<?xml version="1.0" encoding="utf-8"?>
<!-- Generator: Adobe Illustrator 27.5.0, SVG Export Plug-In . SVG Version: 6.00 Build 0)  -->
<svg version="1.1" xmlns="http://www.w3.org/2000/svg" xmlns:xlink="http://www.w3.org/1999/xlink" x="0px" y="0px"
	 viewBox="0 0 3710 3710" style="enable-background:new 0 0 3710 3710;" xml:space="preserve">
<g id="Background">
	<g>
		<g>
			<rect style="fill:#FFFFFF;" width="3710" height="3710"/>
		</g>
	</g>
</g>
<g id="Illustration">
	<g>
		<linearGradient id="SVGID_1_" gradientUnits="userSpaceOnUse" x1="3604.2239" y1="4060.0879" x2="1137.7202" y2="996.8449">
			<stop  offset="0" style="stop-color:#DAE3FE"/>
			<stop  offset="1" style="stop-color:#E9EFFD"/>
		</linearGradient>
		<path style="fill:url(#SVGID_1_);" d="M2925.673,2852.056c-56.655,59.644-110.26,98.107-152.614,128.496
			c-497.852,357.215-1086.944,253.088-1212.143,227.659c-184.879-37.55-542.246-110.133-800.616-413.971
			c-390.892-459.681-330.025-1183.896-26.822-1661.961c55.46-87.446,348.419-572.792,943.855-650.627
			c360.352-47.104,780.406,47.9,1084.598,302.752C3400.458,1319.363,3355.001,2400.073,2925.673,2852.056z"/>
		<g>
			<path style="fill:#BDD0FB;" d="M1138.776,462.581c132.156,164.395,862.157,1152.487,57.994,2004.058
				c0,0-648.04-526.782-88.583-1999.271C1113.08,454.487,1130.142,451.841,1138.776,462.581z"/>
			<path style="opacity:0.86;fill:#FFFFFF;" d="M1146.181,674.538c18.339,64.869,35.322,130.056,51.745,195.403
				c16.392,65.35,32.03,130.89,46.901,196.606c14.87,65.716,28.973,131.608,42.29,197.663
				c13.29,66.062,25.558,132.33,36.993,198.746c22.621,132.862,41.4,266.484,52.832,400.894
				c5.928,67.178,9.427,134.602,10.342,202.093c0.814,67.478-1.027,135.114-8.26,202.402c-0.317,2.948-2.964,5.081-5.912,4.764
				c-2.948-0.316-5.081-2.963-4.764-5.911l0.002-0.02l0.003-0.024c7.425-66.671,9.523-133.927,8.967-201.104
				c-0.654-67.195-3.88-134.413-9.538-201.44c-10.888-134.104-29.124-267.594-51.21-400.379
				c-11.167-66.38-23.169-132.627-36.194-198.68c-13.052-66.047-26.891-131.941-41.5-197.668
				c-14.608-65.726-29.986-131.284-46.117-196.657c-16.161-65.358-32.894-130.608-50.955-195.438l-0.006-0.02
				c-0.337-1.21,0.371-2.464,1.58-2.801C1144.592,672.629,1145.844,673.328,1146.181,674.538z"/>
		</g>
		<g>
			<path style="fill:#BDD0FB;" d="M486.662,907.096c1.513-11.969,18.103-13.958,22.353-2.668
				c41.095,109.156,157.82,392.008,312,534.102c251.042,231.362,438.995,626.113,310.485,850.165
				C1131.501,2288.696,321.804,2211.2,486.662,907.096z"/>
			<path style="opacity:0.43;fill:#FFFFFF;" d="M481.264,1089.902c0.882,3.39,1.936,6.324,2.919,9.432l3.109,9.164l6.418,18.247
				c4.346,12.138,8.822,24.227,13.329,36.305c9.086,24.127,18.472,48.141,28.078,72.067c19.279,47.827,39.795,95.149,61.048,142.136
				c21.212,47.009,43.637,93.47,67.005,139.452l8.734,17.259l8.961,17.143c6.023,11.403,11.836,22.916,18.051,34.218l18.408,34.03
				l18.92,33.751c50.921,89.728,106.554,176.886,168.159,259.732c1.924,2.589,3.802,5.212,5.764,7.772l5.939,7.643l11.876,15.285
				l11.875,15.283c4.021,5.045,8.178,9.983,12.259,14.98l12.298,14.947c4.141,4.947,8.096,10.048,12.418,14.844l25.492,29.134
				c34.709,38.198,71.103,74.89,109.896,108.921c0.515,0.453,1.3,0.401,1.752-0.115c0.446-0.508,0.402-1.277-0.091-1.732
				l-0.012-0.011c-37.89-34.864-73.717-71.855-107.7-110.476l-25.118-29.286c-4.259-4.819-8.153-9.946-12.231-14.918l-12.109-15.019
				c-4.019-5.02-8.111-9.98-12.069-15.048l-11.686-15.351l-11.685-15.35l-5.843-7.674c-1.93-2.571-3.777-5.205-5.669-7.805
				l-22.638-31.246c-7.48-10.462-14.674-21.13-22.024-31.684c-3.64-5.302-7.351-10.555-10.933-15.897l-10.623-16.108l-10.623-16.107
				c-3.562-5.356-7.086-10.736-10.478-16.202c-27.856-43.272-53.988-87.625-79.669-132.221
				c-51.024-89.412-97.463-181.402-140.933-274.746c-21.66-46.712-42.409-93.851-62.261-141.367
				c-9.953-23.747-19.689-47.587-29.128-71.544c-4.684-11.992-9.335-23.997-13.858-36.05l-6.68-18.113l-3.238-9.088
				c-1.015-3.015-2.145-6.145-2.956-8.974l-0.075-0.263c-0.188-0.655-0.87-1.033-1.525-0.845
				C481.474,1088.591,481.097,1089.257,481.264,1089.902z"/>
		</g>
		<g>
			<circle style="fill:#FFFFFF;" cx="1873.018" cy="1870.861" r="952.333"/>
			<path style="fill:#91B3FA;" d="M1873.019,2853.373c-262.437,0-509.169-102.198-694.742-287.772
				c-185.57-185.572-287.77-432.302-287.77-694.741s102.2-509.169,287.77-694.741c185.573-185.572,432.305-287.772,694.742-287.772
				s509.169,102.2,694.742,287.772c185.57,185.572,287.77,432.302,287.77,694.741s-102.2,509.169-287.77,694.741
				C2382.188,2751.175,2135.456,2853.373,1873.019,2853.373z M1873.019,948.707c-508.478,0-922.153,413.676-922.153,922.153
				s413.676,922.153,922.153,922.153s922.153-413.676,922.153-922.153S2381.497,948.707,1873.019,948.707z"/>
		</g>
		<g>
			
				<linearGradient id="SVGID_00000041253821169735338800000008573827943456185012_" gradientUnits="userSpaceOnUse" x1="3033.1641" y1="1828.046" x2="2134.9961" y2="4375.3105">
				<stop  offset="0" style="stop-color:#FE7062"/>
				<stop  offset="1" style="stop-color:#FF928E"/>
			</linearGradient>
			
				<circle style="fill:url(#SVGID_00000041253821169735338800000008573827943456185012_);" cx="2821.105" cy="2429.458" r="391.459"/>
			<g style="opacity:0.91;">
				<path style="fill:#FFFFFF;" d="M2828.629,2673.713c-4.344,0-8.69-0.095-13.059-0.288
					c-149.312-6.584-265.819-125.463-259.715-265.008c2.964-67.859,34.085-130.329,87.626-175.908
					c53.166-45.264,122.202-68.399,194.234-65.259c149.312,6.582,265.823,125.461,259.719,265.006v0.01
					c-2.97,67.851-34.091,130.319-87.629,175.899C2959.859,2650.684,2895.95,2673.713,2828.629,2673.713z M2824.67,2202.679
					c-58.847,0-114.58,20.029-158.035,57.028c-45.897,39.074-72.568,92.439-75.097,150.264
					c-5.241,119.88,95.964,222.06,225.603,227.773c63.01,2.72,123.243-17.38,169.511-56.776
					c45.897-39.074,72.572-92.439,75.101-150.27c5.24-119.874-95.968-222.054-225.607-227.767
					C2832.312,2202.766,2828.481,2202.679,2824.67,2202.679z"/>
				<g>
					<g>
						<path style="fill:#FFFFFF;" d="M2891.325,2421.475c-0.061,41.531-2.898,83.146-10.189,124.089
							c-1.846,10.229-3.986,20.406-6.536,30.489c-2.556,10.077-5.508,20.066-9.124,29.835c-3.645,9.742-7.875,19.345-13.613,28.12
							c-2.891,4.355-6.17,8.53-10.218,11.963c-2.023,1.706-4.244,3.217-6.688,4.327c-2.437,1.101-5.102,1.797-7.807,1.846
							c-2.701,0.079-5.407-0.451-7.893-1.457c-2.497-0.996-4.772-2.441-6.843-4.09c-4.145-3.326-7.496-7.454-10.439-11.775
							c-5.839-8.714-10.128-18.297-13.811-28.023c-3.661-9.751-6.641-19.733-9.222-29.805c-2.575-10.075-4.735-20.249-6.597-30.473
							c-3.714-20.454-6.247-41.102-7.956-61.807c-1.698-20.71-2.549-41.485-2.653-62.264c-0.05-10.388,0.232-20.774,0.599-31.154
							c0.387-10.381,0.956-20.753,1.719-31.112c1.53-20.714,3.817-41.384,7.215-61.884c1.706-10.248,3.694-20.45,6.085-30.564
							c2.398-10.109,5.184-20.141,8.641-29.953c1.737-4.901,3.635-9.751,5.802-14.485c2.164-4.735,4.585-9.365,7.428-13.745
							c2.851-4.36,6.128-8.52,10.211-11.85c2.041-1.652,4.287-3.089,6.75-4.061c2.454-0.987,5.115-1.485,7.763-1.384
							c2.649,0.075,5.261,0.738,7.67,1.804c2.413,1.07,4.63,2.526,6.666,4.176c4.071,3.32,7.441,7.383,10.431,11.645
							c5.942,8.588,10.423,18.059,14.303,27.695c3.853,9.663,7.035,19.574,9.806,29.59c2.759,10.021,5.099,20.153,7.121,30.343
							C2887.953,2338.316,2891.206,2379.936,2891.325,2421.475z M2888.262,2421.475c0.038-20.693-0.744-41.393-2.459-62.016
							c-1.689-20.621-4.247-41.181-8.059-61.517c-1.903-10.165-4.121-20.274-6.758-30.271c-2.648-9.99-5.703-19.879-9.423-29.513
							c-3.746-9.606-8.093-19.044-13.859-27.571c-2.896-4.233-6.167-8.255-10.091-11.525c-1.96-1.625-4.089-3.054-6.393-4.106
							c-2.303-1.04-4.779-1.721-7.302-1.787c-2.518-0.081-5.035,0.429-7.365,1.391c-2.34,0.953-4.485,2.355-6.441,3.975
							c-3.917,3.266-7.09,7.373-9.848,11.694c-2.751,4.339-5.095,8.941-7.186,13.651c-2.092,4.711-3.924,9.541-5.595,14.425
							c-3.324,9.779-5.989,19.781-8.263,29.866c-2.27,10.089-4.14,20.268-5.725,30.491c-3.162,20.451-5.217,41.068-6.516,61.724
							c-1.313,20.657-1.766,41.364-1.73,62.061c-0.054,20.692,0.635,41.39,2.167,62.027c1.544,20.634,3.91,41.215,7.449,61.594
							c1.774,10.188,3.845,20.323,6.328,30.354c2.486,10.028,5.372,19.962,8.923,29.646c3.571,9.656,7.744,19.16,13.387,27.719
							c2.84,4.242,6.072,8.268,9.987,11.458c1.957,1.583,4.087,2.953,6.389,3.89c2.295,0.942,4.758,1.464,7.226,1.38
							c2.466-0.063,4.896-0.716,7.152-1.756c2.26-1.046,4.344-2.486,6.259-4.125c3.832-3.301,6.994-7.377,9.784-11.656
							c5.543-8.627,9.658-18.151,13.189-27.824c3.503-9.702,6.355-19.643,8.817-29.677c2.454-10.037,4.502-20.178,6.258-30.369
							c3.516-20.382,5.851-40.967,7.404-61.6C2887.545,2462.874,2888.27,2442.174,2888.262,2421.475z"/>
						<path style="fill:#FFFFFF;" d="M2826.56,2658.208c-3.153,0-6.462-0.657-9.552-1.905c-2.841-1.134-5.575-2.76-8.339-4.964
							c-4.143-3.322-7.844-7.483-11.67-13.104c-5.31-7.924-9.901-17.215-14.468-29.286c-3.449-9.189-6.531-19.149-9.426-30.449
							c-2.486-9.716-4.672-19.824-6.692-30.893c-3.558-19.61-6.185-40.013-8.031-62.396c-1.668-20.337-2.566-41.443-2.672-62.732
							c-0.056-11.123,0.271-22.111,0.601-31.395c0.397-10.555,0.977-21.099,1.734-31.342c1.66-22.503,4.041-42.921,7.279-62.431
							c1.85-11.119,3.867-21.248,6.166-30.978c2.695-11.365,5.581-21.366,8.823-30.562c1.966-5.555,3.929-10.462,6.007-14.995
							c2.524-5.52,5.093-10.272,7.853-14.528c3.737-5.703,7.372-9.905,11.462-13.238c2.728-2.211,5.526-3.884,8.34-4.994
							c3.241-1.307,6.773-1.922,10.203-1.805c3.272,0.095,6.612,0.87,9.87,2.312c2.738,1.211,5.361,2.849,8.025,5.006
							c4.071,3.322,7.742,7.405,11.575,12.874c5.422,7.832,10.17,17.008,14.962,28.907c3.656,9.161,6.931,19.049,10.025,30.242
							c2.688,9.746,5.049,19.812,7.226,30.783c7.604,38.753,11.363,79.677,11.495,125.12v0.024
							c-0.067,45.728-3.431,86.665-10.285,125.146c-1.996,11.063-4.162,21.171-6.626,30.918c-2.86,11.289-5.907,21.248-9.314,30.456
							c-4.53,12.097-9.048,21.413-14.227,29.332c-3.757,5.664-7.36,9.866-11.363,13.263c-2.688,2.259-5.327,3.961-8.093,5.221
							c-3.386,1.524-6.805,2.322-10.191,2.38C2827.023,2658.202,2826.793,2658.208,2826.56,2658.208z M2823.419,2199.216
							c-1.516,0-3.076,0.321-4.569,0.94c-1.606,0.657-3.248,1.679-4.898,3.05c-2.97,2.47-5.708,5.745-8.611,10.288
							c-2.36,3.725-4.572,7.933-6.752,12.85c-1.86,4.185-3.628,8.742-5.403,13.93c-2.976,8.748-5.623,18.317-8.086,29.233
							c-2.125,9.451-3.972,19.292-5.646,30.09c-2.962,19.136-5.073,39.148-6.455,61.167c-1.2,18.823-1.762,38.995-1.72,61.668
							c-0.055,20.929,0.669,41.639,2.149,61.592c1.639,21.897,4.051,41.857,7.376,61.008c1.867,10.708,3.907,20.502,6.242,29.935
							c2.687,10.834,5.543,20.32,8.727,29.009c4.09,11.056,8.143,19.473,12.758,26.472c2.972,4.439,5.762,7.66,8.758,10.101
							c1.655,1.341,3.288,2.346,4.849,2.979c1.663,0.678,3.221,0.922,4.765,0.946c1.57-0.042,3.182-0.45,4.836-1.212
							c1.581-0.733,3.217-1.822,4.858-3.227c2.949-2.542,5.699-5.834,8.655-10.367c4.522-7.034,8.525-15.491,12.576-26.591
							c3.146-8.717,5.969-18.227,8.621-29.049c2.297-9.379,4.316-19.178,6.174-29.953c3.272-18.979,5.673-38.938,7.333-61.018
							c1.52-19.907,2.285-40.622,2.275-61.58v-0.012c0.038-20.875-0.779-41.567-2.437-61.504
							c-1.798-21.939-4.407-41.858-7.978-60.901c-1.984-10.608-4.163-20.367-6.662-29.841c-2.844-10.734-5.858-20.178-9.214-28.872
							c-4.269-10.945-8.473-19.333-13.224-26.36c-3.054-4.457-5.905-7.725-8.955-10.266c-1.698-1.406-3.397-2.507-5.04-3.256
							c-1.728-0.781-3.402-1.205-4.96-1.241C2823.65,2199.216,2823.534,2199.216,2823.419,2199.216z"/>
					</g>
					<g>
						<path style="fill:#FFFFFF;" d="M2995.692,2421.475c-0.144,26.745-3.568,53.501-10.699,79.294
							c-7.258,25.732-18.196,50.486-33.048,72.711c-7.426,11.1-15.84,21.549-25.24,31.03c-9.397,9.476-19.79,17.981-31.07,25.108
							c-11.293,7.101-23.487,12.784-36.253,16.639c-12.76,3.867-26.078,5.882-39.41,5.896c-13.331-0.002-26.653-2.005-39.42-5.861
							c-12.772-3.845-24.978-9.52-36.281-16.613c-11.292-7.119-21.7-15.617-31.111-25.089c-9.417-9.476-17.846-19.922-25.291-31.023
							c-14.88-22.229-25.842-46.994-33.133-72.739c-3.588-12.896-6.255-26.048-8.022-39.315c-1.757-13.269-2.641-26.652-2.7-40.038
							c0.067-13.387,0.959-26.769,2.725-40.035c1.776-13.265,4.452-26.413,8.05-39.303c7.308-25.736,18.286-50.485,33.177-72.69
							c7.445-11.09,15.877-21.525,25.293-30.988c9.413-9.46,19.813-17.949,31.103-25.047c11.299-7.074,23.501-12.706,36.253-16.551
							c12.742-3.86,26.043-5.873,39.356-5.886c13.315,0.025,26.612,2.048,39.348,5.919c12.743,3.853,24.937,9.497,36.224,16.58
							c11.278,7.106,21.664,15.603,31.061,25.066c9.398,9.466,17.814,19.903,25.243,30.995c14.862,22.2,25.817,46.94,33.092,72.661
							C2992.087,2367.978,2995.531,2394.73,2995.692,2421.475z M2992.181,2421.475c-0.038-26.443-3.318-52.911-10.271-78.435
							c-6.987-25.485-17.508-50.088-31.994-72.214c-7.24-11.052-15.461-21.468-24.67-30.938
							c-9.212-9.454-19.387-18.008-30.517-25.118c-11.141-7.07-23.174-12.761-35.79-16.61c-12.612-3.851-25.777-5.875-38.967-5.92
							c-13.189,0.055-26.351,2.091-38.956,5.954c-12.61,3.858-24.631,9.56-35.762,16.636c-11.115,7.118-21.276,15.678-30.474,25.137
							c-9.192,9.475-17.396,19.892-24.619,30.945c-14.457,22.123-24.957,46.716-31.911,72.188
							c-3.464,12.75-5.973,25.752-7.672,38.85c-1.703,13.1-2.542,26.311-2.573,39.525c0.039,13.214,0.887,26.423,2.599,39.521
							c1.708,13.096,4.226,26.094,7.699,38.839c6.971,25.463,17.489,50.039,31.954,72.139c7.226,11.041,15.432,21.448,24.624,30.909
							c9.197,9.443,19.349,17.997,30.466,25.092c11.126,7.058,23.144,12.718,35.733,16.576c12.58,3.867,25.721,5.911,38.892,5.979
							c13.173-0.055,26.318-2.088,38.905-5.945c12.594-3.847,24.623-9.498,35.762-16.55c11.126-7.088,21.294-15.633,30.507-25.072
							c9.207-9.458,17.43-19.863,24.671-30.904c14.496-22.105,25.037-46.691,32.042-72.165
							C2988.826,2474.382,2992.126,2447.916,2992.181,2421.475z"/>
						<path style="fill:#FFFFFF;" d="M2819.981,2658.208c-13.865,0-27.713-2.058-41.163-6.118
							c-13.009-3.913-25.709-9.728-37.742-17.282c-11.375-7.169-22.202-15.894-32.184-25.946
							c-9.414-9.475-18.172-20.215-26.024-31.917c-14.775-22.068-26.188-47.123-33.931-74.463
							c-3.628-13.045-6.384-26.55-8.197-40.167c-1.768-13.329-2.693-27.059-2.757-40.812c0.075-13.829,1.007-27.559,2.781-40.869
							c1.821-13.623,4.588-27.122,8.217-40.131c7.769-27.353,19.199-52.389,33.984-74.435c7.836-11.679,16.594-22.406,26.028-31.886
							c10.001-10.053,20.822-18.765,32.17-25.899c11.956-7.489,24.645-13.276,37.718-17.218c13.412-4.06,27.237-6.128,41.083-6.14
							c13.878,0.024,27.699,2.103,41.103,6.176c13.05,3.948,25.726,9.745,37.671,17.24c11.342,7.151,22.151,15.869,32.134,25.922
							c9.417,9.487,18.158,20.215,25.977,31.893c14.765,22.058,26.167,47.082,33.889,74.387
							c7.122,25.676,10.813,52.879,10.982,80.896v0.072c-0.149,28.008-3.823,55.22-10.921,80.877
							c-7.707,27.34-19.093,52.384-33.848,74.464c-7.827,11.704-16.567,22.449-25.975,31.929
							c-9.968,10.053-20.781,18.789-32.132,25.964c-12.028,7.558-24.716,13.38-37.726,17.31
							C2847.699,2656.117,2833.859,2658.19,2819.981,2658.208z M2819.955,2198.295c-12.497,0.053-25.019,1.962-37.178,5.684
							c-11.75,3.6-23.29,8.973-34.295,15.964c-10.194,6.526-20.088,14.687-29.386,24.25c-8.662,8.924-16.702,19.037-23.896,30.042
							c-13.56,20.752-24.032,44.458-31.134,70.463c-3.264,12.022-5.792,24.823-7.51,38.034c-1.645,12.66-2.493,25.698-2.524,38.754
							c0.04,13.05,0.897,26.088,2.55,38.725c1.719,13.186,4.255,25.981,7.534,38.026c7.119,25.988,17.61,49.677,31.181,70.411
							c7.188,10.992,15.227,21.088,23.899,30.006c9.31,9.557,19.193,17.708,29.383,24.215c10.924,6.927,22.455,12.274,34.256,15.894
							c12.135,3.728,24.637,5.655,37.167,5.715c12.479-0.053,24.983-1.964,37.114-5.681c11.825-3.617,23.368-8.959,34.308-15.88
							c10.182-6.485,20.083-14.628,29.415-24.191c8.677-8.914,16.737-19.008,23.947-29.996
							c13.588-20.727,24.107-44.428,31.263-70.445c6.647-24.345,10.047-50.191,10.102-76.817
							c-0.041-26.614-3.423-52.466-10.055-76.835c-7.132-26.017-17.639-49.735-31.218-70.486
							c-7.204-10.995-15.261-21.102-23.946-30.031c-9.295-9.539-19.201-17.695-29.441-24.238
							c-10.992-6.975-22.539-12.335-34.303-15.923C2845.021,2200.238,2832.495,2198.335,2819.955,2198.295z"/>
					</g>
					<g>
						<path style="fill:#FFFFFF;" d="M2614.924,2330.194l52.771-0.427l52.771-0.241l105.539-0.196l105.542,0.214l52.771,0.265
							l52.77,0.463c0.086,0,0.154,0.071,0.154,0.156c0,0-0.069,0.153-0.154,0.155l-52.77,0.462l-52.771,0.264l-105.542,0.216
							l-105.539-0.196l-52.771-0.242l-52.771-0.428c-0.127-0.001-0.228-0.105-0.228-0.105
							C2614.696,2330.298,2614.799,2330.196,2614.924,2330.194z"/>
						<polygon style="fill:#FFFFFF;" points="2826.019,2337.577 2667.667,2337.141 2612.366,2336.684 2608.673,2332.99 
							2608.67,2330.284 2608.809,2324.373 2614.876,2324.142 2720.433,2323.469 2825.996,2323.274 2984.347,2323.759 
							3043.118,2324.274 3043.271,2336.477 3037.088,2336.632 2931.577,2337.358 						"/>
					</g>
					<g>
						<path style="fill:#FFFFFF;" d="M2676.144,2241.467c12.489-0.198,24.976-0.284,37.464-0.429l37.466-0.241
							c12.489-0.104,24.978-0.093,37.467-0.125l37.463-0.071l74.932,0.215l37.465,0.265c12.49,0.158,24.977,0.25,37.466,0.463
							l0.152,0.072c-0.001,0.169-0.069,0.237-0.069,0.237c-12.572,0.215-25.06,0.305-37.549,0.464l-37.465,0.265l-74.932,0.214
							l-37.463-0.072c-12.489-0.03-24.978-0.02-37.467-0.125l-37.466-0.242c-12.488-0.144-24.976-0.229-37.464-0.428
							c-0.127-0.001-0.229-0.106-0.227-0.235C2675.919,2241.57,2676.02,2241.469,2676.144,2241.467z"/>
						<path style="fill:#FFFFFF;" d="M2826.024,2248.85l-47.205-0.094c-9.264-0.012-18.528-0.028-27.793-0.106l-49.958-0.373
							c-8.339-0.083-16.68-0.159-25.018-0.295l-5.933-0.094l-0.23-12.247l6.163-0.224c8.07-0.13,16.141-0.206,24.211-0.291
							l50.777-0.382c8.789-0.072,17.592-0.09,26.391-0.101l48.567-0.095l126.09,0.633c7.961,0.087,15.923,0.17,23.884,0.307
							l6.14,0.105l-0.274,12.157l-5.971,0.155c-8.235,0.142-16.576,0.23-24.917,0.319l-49.973,0.409L2826.024,2248.85z"/>
					</g>
					<g>
						<path style="fill:#FFFFFF;" d="M2596.585,2418.922l57.355-0.426l57.354-0.244l114.709-0.196l114.712,0.216l57.355,0.266
							l57.354,0.462c0.085,0,0.156,0.07,0.153,0.156c0,0-0.069,0.153-0.153,0.156l-57.354,0.461l-57.355,0.265l-114.712,0.215
							l-114.709-0.194l-57.354-0.245l-57.355-0.426c-0.127-0.001-0.23-0.106-0.229-0.234
							C2596.357,2419.026,2596.46,2418.924,2596.585,2418.922z"/>
						<polygon style="fill:#FFFFFF;" points="2826.019,2426.304 2653.914,2425.865 2590.558,2425.393 2590.328,2413.1 
							2596.542,2412.87 2711.271,2412.201 2825.999,2412.007 2998.098,2412.486 3058.002,2412.963 3061.645,2416.682 
							3061.409,2425.21 3055.424,2425.363 2940.742,2426.091 						"/>
					</g>
					<g>
						<path style="fill:#FFFFFF;" d="M2614.924,2507.65l52.771-0.427l52.771-0.243l105.539-0.196l105.542,0.217l52.771,0.265
							l52.77,0.461c0.086,0.001,0.154,0.071,0.154,0.071c-0.001,0.172-0.069,0.24-0.154,0.24l-52.77,0.462l-52.771,0.265
							l-105.542,0.216l-105.539-0.196l-52.771-0.243l-52.771-0.428c-0.127-0.001-0.228-0.105-0.228-0.233
							C2614.696,2507.753,2614.799,2507.652,2614.924,2507.65z"/>
						<polygon style="fill:#FFFFFF;" points="2826.019,2515.028 2667.667,2514.592 2612.366,2514.149 2608.676,2510.454 
							2608.67,2507.742 2608.802,2501.826 2614.873,2501.601 2720.437,2500.928 2825.996,2500.733 2984.347,2501.211 
							3043.118,2501.725 3043.271,2513.935 3037.088,2514.091 2931.577,2514.816 						"/>
					</g>
					<g>
						<path style="fill:#FFFFFF;" d="M2983.418,2597.424h-299.723c-0.447,0-0.81-0.365-0.81-0.813c0-0.448,0.363-0.813,0.81-0.813
							h299.723c0.448,0,0.809,0.365,0.809,0.813C2984.227,2597.059,2983.866,2597.424,2983.418,2597.424z"/>
						<path style="fill:#FFFFFF;" d="M2983.416,2603.471h-299.719c-3.771,0-6.839-3.078-6.839-6.861
							c0-3.783,3.068-6.862,6.839-6.862h299.719c3.772,0,6.839,3.08,6.839,6.862
							C2990.255,2600.393,2987.188,2603.471,2983.416,2603.471z"/>
					</g>
				</g>
			</g>
		</g>
		<g>
			<circle style="fill:#7D97F4;" cx="1062.702" cy="1254.888" r="391.459"/>
			<g>
				<g>
					
						<linearGradient id="SVGID_00000179617139929411901140000005571111103452333971_" gradientUnits="userSpaceOnUse" x1="837.9308" y1="1258.8866" x2="1307.3907" y2="1258.8866">
						<stop  offset="0" style="stop-color:#DAE3FE"/>
						<stop  offset="1" style="stop-color:#E9EFFD"/>
					</linearGradient>
					<path style="fill:url(#SVGID_00000179617139929411901140000005571111103452333971_);" d="M1307.391,1398.037
						c0,27.785-22.526,50.31-50.313,50.31H888.244c-27.787,0-50.313-22.524-50.313-50.31v-278.302
						c0-27.785,22.526-50.31,50.313-50.31h368.834c27.787,0,50.313,22.524,50.313,50.31V1398.037z M1270.505,1123.466
						c0-9.474-7.682-17.154-17.157-17.154H881.914c-9.476,0-17.157,7.68-17.157,17.154v270.841c0,9.474,7.682,17.154,17.157,17.154
						h371.433c9.476,0,17.157-7.68,17.157-17.154V1123.466z"/>
				</g>
				<g>
					
						<linearGradient id="SVGID_00000162344645954221047400000011493026358180130716_" gradientUnits="userSpaceOnUse" x1="844.7385" y1="1172.1797" x2="1290.1945" y2="1172.1797">
						<stop  offset="0" style="stop-color:#DAE3FE"/>
						<stop  offset="1" style="stop-color:#E9EFFD"/>
					</linearGradient>
					<path style="fill:url(#SVGID_00000162344645954221047400000011493026358180130716_);" d="M1068.76,1262.313
						c-3.358,0-6.719-1.017-9.591-3.057l-207.443-147.109c-7.466-5.297-9.228-15.645-3.931-23.112
						c5.297-7.473,15.648-9.228,23.112-3.931l197.846,140.303l195.262-138.697c7.466-5.31,17.815-3.549,23.115,3.918
						c5.304,7.46,3.549,17.808-3.915,23.112L1078.36,1259.25C1075.485,1261.29,1072.124,1262.313,1068.76,1262.313z"/>
				</g>
				<g>
					
						<linearGradient id="SVGID_00000167367185363421058490000007233096904844287635_" gradientUnits="userSpaceOnUse" x1="847.4265" y1="1301.7974" x2="1006.411" y2="1301.7974">
						<stop  offset="0" style="stop-color:#DAE3FE"/>
						<stop  offset="1" style="stop-color:#E9EFFD"/>
					</linearGradient>
					<path style="fill:url(#SVGID_00000167367185363421058490000007233096904844287635_);" d="M863.92,1430.422l-4.892-32.786
						l2.289,16.416l-13.89-9.027c3.837-6.165,78.654-137.026,128.005-223.483c4.539-7.959,14.654-10.73,22.616-6.178
						c7.952,4.54,10.717,14.661,6.181,22.613c0,0-32.003,56.06-64.067,112.127c-16.037,28.04-32.09,56.086-44.164,77.119
						C871.927,1429.153,871.927,1429.153,863.92,1430.422z"/>
				</g>
				<g>
					
						<linearGradient id="SVGID_00000044149189485897753000000002490873327860509098_" gradientUnits="userSpaceOnUse" x1="1129.8745" y1="1301.7988" x2="1288.859" y2="1301.7988">
						<stop  offset="0" style="stop-color:#DAE3FE"/>
						<stop  offset="1" style="stop-color:#E9EFFD"/>
					</linearGradient>
					<path style="fill:url(#SVGID_00000044149189485897753000000002490873327860509098_);" d="M1272.365,1430.422
						c-8.007-1.269-8.007-1.269-32.077-43.199c-12.074-21.033-28.127-49.079-44.164-77.119
						c-32.064-56.067-64.067-112.127-64.067-112.127c-4.536-7.952-1.771-18.074,6.181-22.613c7.949-4.546,18.077-1.781,22.616,6.178
						c49.351,86.457,124.168,217.318,128.005,223.483l-13.89,9.027L1272.365,1430.422z"/>
				</g>
			</g>
		</g>
		<g>
			
				<linearGradient id="SVGID_00000175304252169279263190000006743194320225812380_" gradientUnits="userSpaceOnUse" x1="2112.9883" y1="255.9124" x2="1214.8203" y2="2803.1768">
				<stop  offset="0" style="stop-color:#FE7062"/>
				<stop  offset="1" style="stop-color:#FF928E"/>
			</linearGradient>
			<circle style="fill:url(#SVGID_00000175304252169279263190000006743194320225812380_);" cx="1900.93" cy="857.325" r="391.459"/>
			<g style="opacity:0.92;">
				<path style="fill:#FFFFFF;" d="M1805.826,880.344c0,34.567-28.022,71.884-62.589,71.884c-34.567,0-62.589-37.317-62.589-71.884
					s28.022-59.09,62.589-59.09C1777.804,821.255,1805.826,845.778,1805.826,880.344z"/>
				<path style="fill:#FFFFFF;" d="M1665.564,1085.314h152.79c16.084,0,30.323-10.395,35.224-25.714l8.222-25.697
					c6.02-18.815-3.767-39.186-22.321-45.969c-62.18-22.735-126.476-19.818-192.34,2.098c-18.451,6.139-28.69,25.876-23.599,44.644
					l6.331,23.337C1634.242,1074.127,1648.868,1085.314,1665.564,1085.314z"/>
			</g>
			<g style="opacity:0.92;">
				<path style="fill:#FFFFFF;" d="M2105.541,887.566c0,34.567-28.022,71.884-62.589,71.884c-34.567,0-62.589-37.317-62.589-71.884
					c0-34.567,28.022-59.09,62.589-59.09C2077.519,828.477,2105.541,853,2105.541,887.566z"/>
				<path style="fill:#FFFFFF;" d="M1965.279,1092.536h152.79c16.084,0,30.323-10.395,35.224-25.714l8.222-25.697
					c6.02-18.815-3.767-39.186-22.321-45.969c-62.18-22.735-126.476-19.818-192.34,2.098c-18.451,6.139-28.69,25.876-23.599,44.644
					l6.331,23.337C1933.957,1081.349,1948.583,1092.536,1965.279,1092.536z"/>
			</g>
			<g style="opacity:0.92;">
				<path style="fill:#FFFFFF;" d="M1968.322,587.852c0,34.567-28.022,71.884-62.589,71.884c-34.567,0-62.589-37.317-62.589-71.884
					c0-34.567,28.022-59.09,62.589-59.09C1940.3,528.762,1968.322,553.285,1968.322,587.852z"/>
				<path style="fill:#FFFFFF;" d="M1828.06,792.821h152.79c16.084,0,30.323-10.395,35.224-25.714l8.222-25.697
					c6.02-18.815-3.767-39.186-22.32-45.969c-62.18-22.735-126.476-19.818-192.341,2.098c-18.451,6.139-28.69,25.876-23.599,44.644
					l6.331,23.337C1796.738,781.634,1811.364,792.821,1828.06,792.821z"/>
			</g>
		</g>
		<g>
			
				<linearGradient id="SVGID_00000079444913700968733700000001117408631763151760_" gradientUnits="userSpaceOnUse" x1="1335.8407" y1="1736.2184" x2="437.6683" y2="4283.4956" gradientTransform="matrix(0.9942 0.1075 -0.1075 0.9942 79.3691 67.488)">
				<stop  offset="0" style="stop-color:#FE7062"/>
				<stop  offset="1" style="stop-color:#FF928E"/>
			</linearGradient>
			<circle style="fill:url(#SVGID_00000079444913700968733700000001117408631763151760_);" cx="945.337" cy="2512.37" r="391.459"/>
			<g>
				<g>
					<path style="fill:#FFFFFF;" d="M907.722,2256.792c-101.41-11.504-192.776,59.896-204.073,159.476
						c-11.297,99.581,61.754,189.633,163.163,201.137c101.41,11.504,192.777-59.895,204.073-159.476
						C1082.182,2358.348,1009.131,2268.296,907.722,2256.792z M869.817,2590.917c-86.513-9.814-148.833-86.638-139.196-171.591
						c9.637-84.952,87.583-145.864,174.096-136.049c86.513,9.814,148.833,86.638,139.196,171.59
						C1034.275,2539.821,956.33,2600.732,869.817,2590.917z"/>
				</g>
				<g>
					<path style="fill:#FFFFFF;" d="M985.702,2562.674l189.209,194.581c7.935,8.161,25.015,8.048,37.069-0.245l1.979-1.362
						c10.665-7.337,12.882-18.702,4.939-25.325l-215.174-179.434L985.702,2562.674z"/>
				</g>
				<path style="fill:#FFFFFF;" d="M912.306,2567.347c0,0-1.12,0.237-3.219,0.683c-2.106,0.419-5.174,1.154-9.113,1.863
					c-3.982,0.444-8.855,1.406-14.477,1.667c-2.81,0.139-5.809,0.382-8.979,0.462c-3.173-0.061-6.513-0.126-9.998-0.193
					c-3.484-0.313-7.113-0.639-10.869-0.974c-3.72-0.645-7.604-1.202-11.533-2.099c-3.897-1.023-7.984-1.831-11.985-3.29
					c-2.011-0.679-4.08-1.295-6.101-2.091c-1.998-0.855-4.018-1.718-6.055-2.587c-8.013-3.729-16.2-8.072-23.542-13.882
					c-7.381-5.706-14.448-12.149-20.487-19.486c-5.996-7.358-11.199-15.322-15.555-23.552c-4.29-8.275-7.424-16.906-9.939-25.354
					c-2.472-8.481-3.802-16.92-4.699-24.911c-0.639-8.023-0.894-15.628-0.282-22.603c0.373-6.978,1.438-13.302,2.564-18.831
					c1.192-5.52,2.495-10.258,3.844-14.063c1.169-3.857,2.522-6.736,3.337-8.723c0.832-1.979,1.277-3.033,1.277-3.033
					s-0.265,1.115-0.76,3.206c-0.501,2.084-1.251,5.126-1.916,9.053c-0.809,3.888-1.385,8.683-1.978,14.139
					c-0.458,5.479-0.779,11.659-0.593,18.377c0.052,1.677,0.105,3.389,0.16,5.134c0.151,1.737,0.308,3.508,0.465,5.308
					c0.203,3.603,0.884,7.284,1.329,11.078c1.349,7.536,3.17,15.38,5.721,23.28c2.61,7.882,6.071,15.719,10.06,23.413
					c4.152,7.608,9.087,14.914,14.69,21.655c5.485,6.854,11.936,12.866,18.679,18.229c6.739,5.395,14.029,9.862,21.393,13.577
					c1.867,0.886,3.72,1.763,5.554,2.635c1.883,0.76,3.753,1.511,5.6,2.256c3.658,1.618,7.453,2.607,11.075,3.82
					c3.651,1.109,7.316,1.796,10.803,2.741c3.56,0.642,7.001,1.262,10.302,1.857c3.35,0.378,6.559,0.74,9.611,1.085
					c3.065,0.269,5.993,0.362,8.743,0.539c2.76,0.231,5.321,0.136,7.709,0.161c2.397,0.01,4.594,0.018,6.582,0.028
					C907.731,2567.555,912.306,2567.347,912.306,2567.347z"/>
			</g>
		</g>
		<g>
			<circle style="fill:#7D97F4;" cx="2849.941" cy="1168.545" r="391.459"/>
			<g>
				
					<linearGradient id="SVGID_00000119082162799250986830000014519667501798732723_" gradientUnits="userSpaceOnUse" x1="2616.9514" y1="1163.876" x2="3092.8591" y2="1163.876">
					<stop  offset="0" style="stop-color:#DAE3FE"/>
					<stop  offset="1" style="stop-color:#E9EFFD"/>
				</linearGradient>
				<path style="fill:url(#SVGID_00000119082162799250986830000014519667501798732723_);" d="M2691.071,1359.815
					c-6.011-0.365-11.084-0.745-15.103-1.07c-6.859-0.554-12.188-5.953-12.65-12.833c-0.464-6.929,4.126-13.024,10.914-14.502
					c36.325-7.844,76.303-22.497,105.815-34.533c-136.089-19.443-159.133-91.339-162.461-123.79
					c-8.401-81.834,67.484-169.252,169.154-194.874c103.752-26.12,206.158-8.233,260.93,45.59
					c29.104,28.605,59.325,81.832,38.023,173.031C3045.847,1367.462,2776.137,1364.973,2691.071,1359.815z M2679.522,1355.7l0.008,0
					L2679.522,1355.7z M2677.986,1333.956l0.032,0.002C2678.019,1333.958,2677.998,1333.957,2677.986,1333.956z M2879.672,1278.517
					l-44.794,21.529c-2.359,1.13-41.78,19.969-89.339,36.554c105.973,0.036,286.414-18.96,315.944-145.42
					c14.985-64.19,4.481-114.543-31.235-149.639c-55.406-54.462-159.161-58.921-237.431-39.219
					c-88.643,22.341-157.562,99.373-150.498,168.224c6.415,62.503,74.791,101.396,187.7,105.867L2879.672,1278.517z"/>
				
					<linearGradient id="SVGID_00000179644503734977299180000011233884924040157068_" gradientUnits="userSpaceOnUse" x1="2724.1536" y1="1092.899" x2="3002.4761" y2="1092.899">
					<stop  offset="0" style="stop-color:#DAE3FE"/>
					<stop  offset="1" style="stop-color:#E9EFFD"/>
				</linearGradient>
				<path style="fill:url(#SVGID_00000179644503734977299180000011233884924040157068_);" d="M2998.726,1105.474h-270.823
					c-2.071,0-3.75-1.679-3.75-3.75v-17.65c0-2.071,1.679-3.75,3.75-3.75h270.823c2.071,0,3.75,1.679,3.75,3.75v17.65
					C3002.476,1103.795,3000.797,1105.474,2998.726,1105.474z"/>
				
					<linearGradient id="SVGID_00000064325831411315718770000003834354494610470560_" gradientUnits="userSpaceOnUse" x1="2677.2075" y1="1163.3177" x2="3029.3022" y2="1163.3177">
					<stop  offset="0" style="stop-color:#DAE3FE"/>
					<stop  offset="1" style="stop-color:#E9EFFD"/>
				</linearGradient>
				<path style="fill:url(#SVGID_00000064325831411315718770000003834354494610470560_);" d="M3025.552,1175.893h-344.595
					c-2.071,0-3.75-1.679-3.75-3.75v-17.65c0-2.071,1.679-3.75,3.75-3.75h344.595c2.071,0,3.75,1.679,3.75,3.75v17.65
					C3029.302,1174.214,3027.623,1175.893,3025.552,1175.893z"/>
			</g>
		</g>
		<g>
			<circle style="fill:#7D97F4;" cx="1964.664" cy="2837.689" r="391.459"/>
			<g>
				
					<linearGradient id="SVGID_00000147931365862705020860000007307587379797277064_" gradientUnits="userSpaceOnUse" x1="1843.1047" y1="2824.0701" x2="2063.8579" y2="2824.0701">
					<stop  offset="0" style="stop-color:#DAE3FE"/>
					<stop  offset="1" style="stop-color:#E9EFFD"/>
				</linearGradient>
				
					<circle style="fill:url(#SVGID_00000147931365862705020860000007307587379797277064_);" cx="1953.481" cy="2824.07" r="110.369"/>
				
					<linearGradient id="SVGID_00000102531612816857608230000008088036342543789982_" gradientUnits="userSpaceOnUse" x1="1792.9238" y1="2623.2612" x2="1917.6973" y2="2623.2612">
					<stop  offset="0" style="stop-color:#DAE3FE"/>
					<stop  offset="1" style="stop-color:#E9EFFD"/>
				</linearGradient>
				
					<circle style="fill:url(#SVGID_00000102531612816857608230000008088036342543789982_);" cx="1855.311" cy="2623.261" r="62.383"/>
				
					<linearGradient id="SVGID_00000163046799315226548730000010401879494051817654_" gradientUnits="userSpaceOnUse" x1="1648.7415" y1="2945.1587" x2="1809.9852" y2="2945.1587">
					<stop  offset="0" style="stop-color:#DAE3FE"/>
					<stop  offset="1" style="stop-color:#E9EFFD"/>
				</linearGradient>
				
					<circle style="fill:url(#SVGID_00000163046799315226548730000010401879494051817654_);" cx="1729.363" cy="2945.159" r="80.617"/>
				
					<linearGradient id="SVGID_00000039817131750675961640000007896564178068806805_" gradientUnits="userSpaceOnUse" x1="2095.4089" y1="2735.417" x2="2272.0112" y2="2735.417">
					<stop  offset="0" style="stop-color:#DAE3FE"/>
					<stop  offset="1" style="stop-color:#E9EFFD"/>
				</linearGradient>
				
					<circle style="fill:url(#SVGID_00000039817131750675961640000007896564178068806805_);" cx="2183.71" cy="2735.417" r="88.295"/>
				
					<linearGradient id="SVGID_00000039097350474660735500000007191739777422170037_" gradientUnits="userSpaceOnUse" x1="1998.1399" y1="3038.9019" x2="2134.1423" y2="3038.9019">
					<stop  offset="0" style="stop-color:#DAE3FE"/>
					<stop  offset="1" style="stop-color:#E9EFFD"/>
				</linearGradient>
				
					<circle style="fill:url(#SVGID_00000039097350474660735500000007191739777422170037_);" cx="2066.141" cy="3038.902" r="67.997"/>
				
					<linearGradient id="SVGID_00000029759841104013827550000014053559881311683258_" gradientUnits="userSpaceOnUse" x1="1844.5486" y1="2827.7764" x2="2072.0381" y2="2827.7764">
					<stop  offset="0" style="stop-color:#DAE3FE"/>
					<stop  offset="1" style="stop-color:#E9EFFD"/>
				</linearGradient>
				<polygon style="fill:url(#SVGID_00000029759841104013827550000014053559881311683258_);" points="2051.722,3036.973 
					1933.944,2833.355 1933.679,2832.741 1844.549,2627.945 1866.07,2618.579 1954.935,2822.761 2072.038,3025.221 				"/>
				
					<linearGradient id="SVGID_00000170263581546413827960000016932145551858023565_" gradientUnits="userSpaceOnUse" x1="1729.8918" y1="2837.5046" x2="2192.8777" y2="2837.5046">
					<stop  offset="0" style="stop-color:#DAE3FE"/>
					<stop  offset="1" style="stop-color:#E9EFFD"/>
				</linearGradient>
				<polygon style="fill:url(#SVGID_00000170263581546413827960000016932145551858023565_);" points="1743.331,2960.241 
					1729.892,2940.996 1942.606,2792.434 2185.732,2714.768 2192.878,2737.128 1953.131,2813.713 				"/>
			</g>
		</g>
		<g>
			
				<linearGradient id="SVGID_00000002375201686051134120000014131135804495414433_" gradientUnits="userSpaceOnUse" x1="1285.9198" y1="1932.8779" x2="1321.1273" y2="2581.7063">
				<stop  offset="0" style="stop-color:#09005D"/>
				<stop  offset="1" style="stop-color:#1A0F91"/>
			</linearGradient>
			<path style="fill:url(#SVGID_00000002375201686051134120000014131135804495414433_);" d="M1037.406,1956.649
				c0,0,196.36,517.864,258.397,625.594c72.013,125.053,282.328,45.366,271.862-59.29
				c-10.466-104.656-256.187-537.236-256.187-537.236L1037.406,1956.649z"/>
			
				<linearGradient id="SVGID_00000055691432672748878750000003851413478339765420_" gradientUnits="userSpaceOnUse" x1="1338.5374" y1="2442.7261" x2="2208.6721" y2="1673.1855">
				<stop  offset="0" style="stop-color:#4F52FF"/>
				<stop  offset="1" style="stop-color:#4042E2"/>
			</linearGradient>
			<polygon style="fill:url(#SVGID_00000055691432672748878750000003851413478339765420_);" points="1302.724,1579.411 
				2523.17,1156.264 2510.353,2301.369 1269.371,2024.475 			"/>
			<ellipse style="fill:#91B3FA;" cx="2524.321" cy="1732.139" rx="119.904" ry="588.478"/>
			
				<linearGradient id="SVGID_00000145777009635253350210000005304589350477890692_" gradientUnits="userSpaceOnUse" x1="2391.7688" y1="1741.6937" x2="2707.3828" y2="1713.0016">
				<stop  offset="0" style="stop-color:#4F52FF"/>
				<stop  offset="1" style="stop-color:#4042E2"/>
			</linearGradient>
			<path style="fill:url(#SVGID_00000145777009635253350210000005304589350477890692_);" d="M2533.421,2280.373
				c-10.837-11.022-34.446-53.54-54.685-163.489c-19.562-106.254-30.334-244.073-30.334-388.067
				c0-143.995,10.772-281.813,30.334-388.067c20.239-109.95,43.848-152.469,54.685-163.491
				c10.837,11.023,34.446,53.541,54.686,163.491c19.562,106.254,30.334,244.072,30.334,388.067
				c0,143.994-10.772,281.812-30.334,388.067C2567.867,2226.833,2544.258,2269.351,2533.421,2280.373z"/>
			<g>
				<defs>
					<path id="SVGID_00000060748591917770489070000005095263715524402564_" d="M2533.421,2280.373
						c-10.837-11.022-34.446-53.54-54.685-163.489c-19.562-106.254-30.334-244.073-30.334-388.067
						c0-143.995,10.772-281.813,30.334-388.067c20.239-109.95,43.848-152.469,54.685-163.491
						c10.837,11.023,34.446,53.541,54.686,163.491c19.562,106.254,173.921,244.072,173.921,388.067
						c0,143.994-154.359,281.812-173.921,388.067C2567.867,2226.833,2544.258,2269.351,2533.421,2280.373z"/>
				</defs>
				<clipPath id="SVGID_00000093147239609935979560000013947282183178622637_">
					<use xlink:href="#SVGID_00000060748591917770489070000005095263715524402564_"  style="overflow:visible;"/>
				</clipPath>
				
					<linearGradient id="SVGID_00000088825472041687111400000011539738117819830199_" gradientUnits="userSpaceOnUse" x1="2789.9666" y1="1709.3212" x2="1938.7618" y2="1758.1614">
					<stop  offset="0" style="stop-color:#09005D"/>
					<stop  offset="1" style="stop-color:#1A0F91"/>
				</linearGradient>
				
					<path style="clip-path:url(#SVGID_00000093147239609935979560000013947282183178622637_);fill:url(#SVGID_00000088825472041687111400000011539738117819830199_);" d="
					M2687.106,1724.434c0,99.989-53.864,181.046-160.473,181.046c-106.609,0-193.033-81.057-193.033-181.046
					c0-99.989,86.424-181.046,193.033-181.046C2633.242,1543.389,2687.106,1624.446,2687.106,1724.434z"/>
			</g>
			
				<linearGradient id="SVGID_00000026857083216303611250000008791827635922709120_" gradientUnits="userSpaceOnUse" x1="1490.1323" y1="1301.8438" x2="1223.5592" y2="1754.5143">
				<stop  offset="0" style="stop-color:#09005D"/>
				<stop  offset="1" style="stop-color:#1A0F91"/>
			</linearGradient>
			<path style="fill:url(#SVGID_00000026857083216303611250000008791827635922709120_);" d="M1105.884,1554.796
				c57.412-6.667,139.739-9.067,228.753,11.319c-29.327,153.196-24.901,312.871,9.017,478.21l-251.066,0
				c-40.029,0-74.161-29.075-80.403-68.614c-12.512-79.254-27.809-212.459-11.499-319.444
				C1008.872,1602.576,1051.935,1561.062,1105.884,1554.796z"/>
			<path style="fill:#BDD0FB;" d="M1256.561,1672.125h-195.61c-6.64,0-12.498-3.481-15.671-9.313
				c-3.172-5.832-2.913-12.644,0.694-18.217c1.51-2.331,4.624-2.986,6.955-1.49c2.331,1.51,3,4.624,1.49,6.959
				c-1.572,2.43-1.685,5.396-0.303,7.941c1.384,2.541,3.939,4.061,6.834,4.061h195.61c4.29,0,7.779-3.488,7.779-7.778v-13.92
				c0-4.29-3.489-7.778-7.779-7.778H1059.5c-2.779,0-5.03-2.253-5.03-5.03c0-2.777,2.251-5.03,5.03-5.03h197.061
				c9.837,0,17.839,8.004,17.839,17.838v13.92C1274.4,1664.122,1266.398,1672.125,1256.561,1672.125z"/>
			<path style="fill:#BDD0FB;" d="M1239.118,1758.757h-195.61c-6.64,0-12.498-3.481-15.671-9.313
				c-3.172-5.832-2.913-12.644,0.694-18.217c1.51-2.328,4.625-2.987,6.955-1.49c2.332,1.51,3,4.624,1.49,6.959
				c-1.572,2.43-1.685,5.397-0.303,7.941c1.384,2.541,3.94,4.061,6.834,4.061h195.61c4.29,0,7.779-3.487,7.779-7.777v-13.917
				c0-4.29-3.489-7.781-7.779-7.781h-197.061c-2.779,0-5.03-2.253-5.03-5.03c0-2.777,2.251-5.03,5.03-5.03h197.061
				c9.837,0,17.839,8.003,17.839,17.84v13.917C1256.957,1750.754,1248.956,1758.757,1239.118,1758.757z"/>
			<path style="fill:#BDD0FB;" d="M1480.062,1548.417c-2.132,0-4.11-1.366-4.791-3.504c-0.843-2.649,0.621-5.475,3.266-6.32
				l924.352-294.146c2.646-0.841,5.475,0.622,6.319,3.268c0.843,2.649-0.621,5.476-3.267,6.32l-924.352,294.146
				C1481.082,1548.342,1480.568,1548.417,1480.062,1548.417z"/>
			<path style="fill:#BDD0FB;" d="M1355.064,1599.516c-1.983,0-3.861-1.179-4.658-3.128c-1.051-2.571,0.182-5.508,2.754-6.559
				l47.573-19.445c2.569-1.058,5.508,0.183,6.559,2.754c1.051,2.571-0.182,5.508-2.754,6.559l-47.573,19.445
				C1356.343,1599.398,1355.697,1599.516,1355.064,1599.516z"/>
			<path style="fill:#BDD0FB;" d="M1256.561,1860.217h-195.61c-6.64,0-12.496-3.481-15.67-9.313
				c-3.173-5.832-2.914-12.644,0.693-18.217c1.51-2.335,4.624-2.993,6.955-1.493c2.331,1.51,3,4.624,1.49,6.955
				c-1.573,2.433-1.686,5.403-0.301,7.948c1.384,2.541,3.938,4.061,6.833,4.061h195.61c4.29,0,7.779-3.491,7.779-7.781v-13.917
				c0-4.29-3.489-7.778-7.779-7.778H1059.5c-2.779,0-5.03-2.253-5.03-5.03c0-2.777,2.251-5.03,5.03-5.03h197.061
				c9.837,0,17.839,8.003,17.839,17.838v13.917C1274.4,1852.214,1266.398,1860.217,1256.561,1860.217z"/>
			<path style="fill:#BDD0FB;" d="M1274.876,1972.834h-195.61c-6.64,0-12.496-3.481-15.67-9.313
				c-3.173-5.832-2.914-12.644,0.693-18.217c1.511-2.335,4.625-2.993,6.955-1.493c2.331,1.51,3,4.624,1.49,6.955
				c-1.573,2.433-1.686,5.403-0.301,7.948c1.384,2.541,3.938,4.061,6.833,4.061h195.61c4.29,0,7.779-3.488,7.779-7.778v-13.921
				c0-4.29-3.489-7.777-7.779-7.777h-197.061c-2.779,0-5.03-2.253-5.03-5.03c0-2.777,2.251-5.03,5.03-5.03h197.061
				c9.837,0,17.839,8.003,17.839,17.837v13.921C1292.715,1964.83,1284.714,1972.834,1274.876,1972.834z"/>
			<path style="fill:#BDD0FB;" d="M1449.581,2585.129c-9.014,0-18.124-0.973-27.213-2.954c-39.77-8.665-72.147-34.888-88.828-71.948
				l-156.281-347.196c-1.141-2.531-0.011-5.508,2.522-6.651s5.511-0.007,6.651,2.525l156.281,347.196
				c15.36,34.119,45.174,58.266,81.797,66.244c35.994,7.849,72.415-1.467,99.932-25.549c1.475-1.291,2.957-2.617,4.446-3.975
				c2.05-1.873,5.231-1.732,7.106,0.321c1.873,2.05,1.73,5.233-0.321,7.106c-1.544,1.411-3.078,2.784-4.607,4.12
				C1508.079,2574.48,1479.381,2585.129,1449.581,2585.129z"/>
			<path style="fill:#BDD0FB;" d="M1158.741,2114.661c-1.919,0-3.751-1.104-4.59-2.964l-17.434-38.733
				c-1.141-2.531-0.011-5.508,2.522-6.651c2.531-1.139,5.511-0.006,6.651,2.522l17.434,38.73c1.141,2.534,0.011,5.511-2.522,6.654
				C1160.133,2114.52,1159.43,2114.661,1158.741,2114.661z"/>
			<path style="fill:#BDD0FB;" d="M2658.529,1719.222c-2.616,0-4.824-2.024-5.012-4.673c-3.476-48.993-20.457-85.519-50.471-108.563
				c-51.904-39.85-125.966-26.155-126.71-26.007c-2.742,0.521-5.364-1.257-5.889-3.985c-0.527-2.728,1.259-5.367,3.987-5.891
				c3.209-0.619,79.283-14.668,134.739,27.904c32.395,24.871,50.69,63.843,54.378,115.829c0.197,2.77-1.889,5.177-4.661,5.374
				C2658.768,1719.219,2658.648,1719.222,2658.529,1719.222z"/>
		</g>
	</g>
</g>
</svg>
